HIERARCHY
ROOT Pelvis
{
	OFFSET 0.000000 0.000000 0.000000
	CHANNELS 6 Xposition Yposition Zposition Xrotation Yrotation Zrotation
	JOINT LeftUpLeg_virtual
	{
		OFFSET 0.000000 0.000000 0.000000
		CHANNELS 3 Xrotation Yrotation Zrotation
		JOINT LeftUpLeg
		{
			OFFSET 8.479700 -4.795502 -0.379100
			CHANNELS 3 Xrotation Yrotation Zrotation
			JOINT LeftLeg
			{
				OFFSET 0.024144 -32.555107 0.112900
				CHANNELS 3 Xrotation Yrotation Zrotation
				JOINT LeftFoot
				{
					OFFSET -0.024144 -32.638630 -3.012600
					CHANNELS 3 Xrotation Yrotation Zrotation
					JOINT LeftToeBase
					{
						OFFSET 0.970200 -13.225400 11.864200
						CHANNELS 3 Xrotation Yrotation Zrotation
						End Site
						{
							OFFSET 0 0 0
						}
					}
				}
			}
		}
	}
	JOINT RightUpLeg_virtual
	{
		OFFSET 0.000000 0.000000 0.000000
		CHANNELS 3 Xrotation Yrotation Zrotation
		JOINT RightUpLeg
		{
			OFFSET -8.479700 -4.795502 -0.379100
			CHANNELS 3 Xrotation Yrotation Zrotation
			JOINT RightLeg
			{
				OFFSET -0.023144 -32.555092 0.112900
				CHANNELS 3 Xrotation Yrotation Zrotation
				JOINT RightFoot
				{
					OFFSET 0.023144 -32.638641 -3.012700
					CHANNELS 3 Xrotation Yrotation Zrotation
					JOINT RightToeBase
					{
						OFFSET -0.970200 -13.225400 11.864200
						CHANNELS 3 Xrotation Yrotation Zrotation
						End Site
						{
							OFFSET 0 0 0
						}
					}
				}
			}
		}
	}
	JOINT Hips_virtual
	{
		OFFSET 0.000000 0.000000 0.000000
		CHANNELS 3 Xrotation Yrotation Zrotation
		JOINT Hips
		{
			OFFSET -0.000000 -0.000000 -0.000000
			CHANNELS 3 Xrotation Yrotation Zrotation
			JOINT Spine
			{
				OFFSET 0.000000 7.722000 1.166200
				CHANNELS 3 Xrotation Yrotation Zrotation
				JOINT Spine1
				{
					OFFSET 0.000000 12.024101 0.248800
					CHANNELS 3 Xrotation Yrotation Zrotation
					JOINT Spine2
					{
						OFFSET 0.000000 11.502998 -0.491200
						CHANNELS 3 Xrotation Yrotation Zrotation
						JOINT Neck_virtual
						{
							OFFSET 0.000000 0.000000 0.000000
							CHANNELS 3 Xrotation Yrotation Zrotation
							JOINT Neck
							{
								OFFSET 0.000000 18.430702 -3.123100
								CHANNELS 3 Xrotation Yrotation Zrotation
								JOINT Head
								{
									OFFSET 0.000000 9.051102 1.034000
									CHANNELS 3 Xrotation Yrotation Zrotation
									End Site
									{
										OFFSET 0 0 0
									}
								}
							}
						}
						JOINT LeftShoulder_virtual
						{
							OFFSET 0.000000 0.000000 0.000000
							CHANNELS 3 Xrotation Yrotation Zrotation
							JOINT LeftShoulder
							{
								OFFSET 6.197800 13.665199 -4.064700
								CHANNELS 3 Xrotation Yrotation Zrotation
								JOINT LeftArm
								{
									OFFSET 7.778100 -0.187103 -1.709300
									CHANNELS 3 Xrotation Yrotation Zrotation
									JOINT LeftForeArm
									{
										OFFSET 22.049376 0.000000 0.000000
										CHANNELS 3 Xrotation Yrotation Zrotation
										JOINT LeftHand
										{
											OFFSET 23.009392 0.000000 0.000000
											CHANNELS 3 Xrotation Yrotation Zrotation
											End Site
											{
												OFFSET 0 0 0
											}
										}
									}
								}
							}
						}
						JOINT RightShoulder_virtual
						{
							OFFSET 0.000000 0.000000 0.000000
							CHANNELS 3 Xrotation Yrotation Zrotation
							JOINT RightShoulder
							{
								OFFSET -6.197800 13.665199 -4.064700
								CHANNELS 3 Xrotation Yrotation Zrotation
								JOINT RightArm
								{
									OFFSET -7.778100 -0.187103 -1.709300
									CHANNELS 3 Xrotation Yrotation Zrotation
									JOINT RightForeArm
									{
										OFFSET -22.049376 0.000000 0.000000
										CHANNELS 3 Xrotation Yrotation Zrotation
										JOINT RightHand
										{
											OFFSET -23.009392 0.000000 0.000000
											CHANNELS 3 Xrotation Yrotation Zrotation
											End Site
											{
												OFFSET 0 0 0
											}
										}
									}
								}
							}
						}
					}
				}
			}
		}
	}
}
MOTION
Frames: 4
Frame Time: 0.03333333
-0.105715 82.535873 0.075964 0.000000 0.000000 0.000000 2.828151 -5.510052 -1.373090 -17.934535 16.747564 11.531501 17.658307 9.841550 4.661961 -2.123161 3.101564 -10.515966 0.000000 0.000000 0.000000 2.828151 -5.510052 -1.373090 -15.397944 -21.189699 -5.349410 17.937888 9.895027 -2.988349 -6.002397 1.065648 4.224959 0.000000 0.000000 0.000000 2.828151 -5.510052 -1.373090 0.000000 -0.000001 0.000000 -0.410455 -1.028107 1.226709 -1.124193 -0.763622 0.960462 0.000000 0.000000 0.000000 -1.125714 -0.723789 0.985441 -4.895965 1.540609 -0.449521 0.000000 0.000000 0.000000 -1.125714 -0.723789 0.985441 -1.469254 10.517229 -4.984830 43.879628 -68.213673 -24.791784 -0.000000 -21.268111 -0.000006 0.000000 0.000000 0.000000 -1.125714 -0.723789 0.985441 3.669362 5.665986 1.464133 -1.701517 36.578661 65.584952 -0.000006 22.959763 0.000013 0.000000 0.000000 0.000000 
-0.086945 82.535645 0.069185 0.000000 0.000000 0.000000 2.805639 -5.469307 -1.350324 -17.912704 16.746242 11.504737 17.666125 9.836559 4.618348 -2.129796 3.074471 -10.471992 0.000000 0.000000 0.000000 2.805639 -5.469307 -1.350324 -15.411313 -21.214738 -5.415812 17.965402 9.894610 -2.978209 -6.010583 1.069849 4.232656 0.000000 0.000000 0.000000 2.805639 -5.469307 -1.350324 0.000000 0.000000 0.000000 -0.420025 -1.068211 1.223020 -1.133012 -0.794374 0.957289 0.000000 0.000000 0.000000 -1.134493 -0.754700 0.983290 -4.912534 1.560737 -0.428862 0.000000 0.000000 0.000000 -1.134493 -0.754700 0.983290 -1.470420 10.513381 -4.967266 43.640220 -68.242824 -25.097597 -0.000024 -21.297092 0.000000 0.000000 0.000000 0.000000 -1.134493 -0.754700 0.983290 3.665458 5.656877 1.475269 -1.703464 36.697537 65.596727 -0.000002 22.913184 0.000005 0.000000 0.000000 0.000000 
-0.066558 82.534554 0.062334 0.000000 0.000000 0.000000 2.785842 -5.431575 -1.319387 -17.890974 16.748652 11.466487 17.673690 9.831546 4.579001 -2.135934 3.048850 -10.428117 0.000000 0.000000 0.000000 2.785842 -5.431575 -1.319387 -15.440780 -21.241086 -5.496425 18.008265 9.894231 -2.968162 -6.026482 1.080453 4.241047 0.000000 0.000000 0.000000 2.785842 -5.431575 -1.319387 0.000000 0.000001 0.000000 -0.425003 -1.105867 1.216207 -1.138106 -0.823448 0.951492 0.000000 0.000000 0.000000 -1.139511 -0.784102 0.978433 -4.937642 1.583682 -0.410673 0.000000 0.000000 0.000000 -1.139511 -0.784102 0.978433 -1.471644 10.508765 -4.946810 43.432090 -68.283109 -25.363716 0.000011 -21.330155 0.000005 0.000000 0.000000 0.000000 -1.139511 -0.784102 0.978433 3.663050 5.650922 1.476512 -1.717214 36.859580 65.610333 -0.000019 22.842784 0.000006 0.000000 0.000000 0.000000 
-0.042325 82.532318 0.055563 0.000000 0.000000 0.000000 2.774331 -5.403635 -1.274757 -17.871337 16.769013 11.408508 17.674889 9.827078 4.550870 -2.142753 3.020615 -10.385745 0.000000 0.000000 0.000000 2.774331 -5.403635 -1.274757 -15.499782 -21.258274 -5.598556 18.073900 9.893729 -2.957425 -6.049231 1.095940 4.250813 0.000000 0.000000 0.000000 2.774331 -5.403635 -1.274757 0.000000 0.000000 0.000000 -0.423506 -1.139207 1.205159 -1.138050 -0.849447 0.942093 0.000000 0.000000 0.000000 -1.139338 -0.810645 0.969838 -4.977105 1.608951 -0.396729 0.000000 0.000000 0.000000 -1.139338 -0.810645 0.969838 -1.472791 10.501846 -4.921265 43.262845 -68.342299 -25.576243 -0.000020 -21.363961 -0.000030 0.000000 0.000000 0.000000 -1.139338 -0.810645 0.969838 3.662694 5.649603 1.468054 -1.746186 37.070678 65.621568 -0.000015 22.738564 0.000017 0.000000 0.000000 0.000000 
